<svg width="169" height="152" viewBox="0 0 169 152" fill="none" xmlns="http://www.w3.org/2000/svg">
<g clip-path="url(#clip0_1_85)">
<path d="M22.7924 146.606H8.63963L5.7431 151.058H0.5L12.3795 133.25C12.7194 132.721 13.1546 132.259 13.6628 131.889C14.3092 131.484 15.0653 131.291 15.826 131.337C16.5744 131.299 17.3166 131.491 17.9526 131.889C18.4608 132.259 18.896 132.721 19.2359 133.25L31.0421 151.058H25.7623L22.7924 146.606ZM10.7662 143.295H20.6659L15.716 135.716L10.7662 143.295Z" fill="white"/>
<path d="M54.6544 151.5C54.2047 151.508 53.7572 151.434 53.3345 151.279C52.9032 151.122 52.5053 150.885 52.1612 150.58L37.2752 137.335V151.059H33.022V133.14C33.0103 132.872 33.0684 132.606 33.1905 132.367C33.3127 132.128 33.4947 131.925 33.7186 131.779C34.2487 131.46 34.8612 131.306 35.4785 131.337C35.9168 131.323 36.3535 131.398 36.7618 131.558C37.0787 131.662 37.3673 131.839 37.6051 132.073L52.6378 145.723V131.779H57.0743V149.697C57.1099 149.96 57.0701 150.228 56.9597 150.469C56.8493 150.71 56.6729 150.914 56.451 151.059C55.9209 151.41 55.2861 151.565 54.6544 151.5Z" fill="white"/>
<path d="M67.8172 151.059V135.495H59.2375V131.816H80.98V135.495H72.4003V151.059H67.8172Z" fill="white"/>
<path d="M83.3633 151.059V131.779H87.9464V151.059H83.3633Z" fill="white"/>
<path d="M90.9165 151.059V147.379H106.463C107.068 147.43 107.676 147.315 108.222 147.048C108.422 146.895 108.578 146.692 108.674 146.46C108.771 146.227 108.805 145.973 108.773 145.723V144.693C108.795 144.45 108.756 144.204 108.66 143.979C108.564 143.755 108.414 143.557 108.222 143.405C107.699 143.109 107.098 142.98 106.499 143.038H96.7463C95.7944 143.061 94.8439 142.95 93.9231 142.706C93.2582 142.573 92.6392 142.269 92.1265 141.823C91.6832 141.404 91.3657 140.869 91.2098 140.278C91.0387 139.58 90.9526 138.863 90.9532 138.144V137.151C90.9374 136.305 91.0486 135.461 91.2832 134.649C91.4647 134.001 91.8198 133.416 92.3098 132.956C92.8296 132.514 93.4447 132.199 94.1064 132.036C94.9713 131.832 95.8577 131.733 96.7463 131.742H103.126V135.421H97.1863C96.635 135.37 96.0819 135.499 95.6096 135.789C95.4204 135.995 95.2793 136.24 95.1969 136.508C95.1144 136.775 95.0926 137.058 95.133 137.335V137.96C95.1062 138.194 95.1318 138.431 95.2079 138.654C95.2841 138.877 95.4088 139.08 95.573 139.248C96.0374 139.559 96.5935 139.701 97.1496 139.653H106.719C107.691 139.632 108.663 139.718 109.616 139.91C110.303 140.057 110.952 140.345 111.522 140.756C112.03 141.154 112.412 141.691 112.622 142.302C112.859 143.026 112.97 143.785 112.952 144.546V146.055C112.972 146.84 112.861 147.624 112.622 148.373C112.412 148.983 112.03 149.52 111.522 149.918C110.952 150.329 110.303 150.617 109.616 150.764C108.667 150.989 107.693 151.088 106.719 151.059H90.9165Z" fill="white"/>
<path d="M120.359 145.723V151.242H115.739V131.963H132.091C133.322 131.941 134.551 132.052 135.758 132.294C136.626 132.453 137.444 132.819 138.141 133.361C138.743 133.877 139.188 134.553 139.425 135.311C139.678 136.246 139.802 137.212 139.791 138.181V139.836C139.823 140.807 139.699 141.776 139.425 142.706C139.201 143.421 138.766 144.05 138.178 144.509C137.48 145.006 136.677 145.333 135.831 145.466C134.619 145.658 133.392 145.744 132.165 145.723H120.359ZM135.281 138.365C135.333 137.979 135.298 137.587 135.177 137.218C135.056 136.848 134.854 136.511 134.585 136.231C133.818 135.79 132.935 135.597 132.055 135.679H120.359V142.044H132.128C132.996 142.121 133.866 141.928 134.621 141.492C134.875 141.226 135.066 140.906 135.18 140.556C135.295 140.205 135.329 139.834 135.281 139.469V138.365Z" fill="white"/>
<path d="M151.891 151.059V142.044L139.901 131.852H146.024L154.274 138.733L162.67 131.852H168.5L156.437 142.044V151.095L151.891 151.059Z" fill="white"/>
<path fill-rule="evenodd" clip-rule="evenodd" d="M90.6231 75.4114C100.118 65.6586 107.354 53.9251 111.816 41.0462C104.654 39.5255 97.5895 37.7226 90.6231 35.6376V23.9742C102.251 27.7285 114.155 30.5581 126.225 32.4366C121.306 55.4013 108.751 76.005 90.6231 90.8645V75.4114ZM90.6231 12.2739V0.499992C70.964 7.61848 50.3717 11.8084 29.5022 12.9362C29.8783 34.3105 35.6905 55.2339 46.3874 73.7211C57.0843 92.2084 72.3111 107.646 90.6231 118.57V105.251C104.173 95.9084 115.554 83.7417 123.988 69.5816C132.423 55.4214 137.714 39.6012 139.498 23.2016C122.857 21.3659 106.467 17.7013 90.6231 12.2739ZM41.7484 23.0543C58.384 21.2664 74.7737 17.6513 90.6231 12.2739V23.9742C78.9842 27.7326 67.0676 30.5622 54.9845 32.4366C59.916 55.4053 72.4833 76.0088 90.6231 90.8645V105.251C77.056 95.8926 65.6645 83.7027 57.2288 69.5157C48.7931 55.3288 43.5125 39.4798 41.7484 23.0543ZM90.6231 75.4114C81.1278 65.6586 73.892 53.9251 69.4306 41.0462C76.5681 39.5255 83.6323 37.7226 90.6231 35.6376V75.4114Z" fill="#08D9D6"/>
</g>
<defs>
<clipPath id="clip0_1_85">
<rect width="168" height="151" fill="white" transform="translate(0.5 0.5)"/>
</clipPath>
</defs>
</svg>
